<?xml version="1.0" encoding="UTF-8" standalone="no"?>
<!-- Created with Inkscape (http://www.inkscape.org/) -->

<svg
   xmlns:dc="http://purl.org/dc/elements/1.1/"
   xmlns:cc="http://creativecommons.org/ns#"
   xmlns:rdf="http://www.w3.org/1999/02/22-rdf-syntax-ns#"
   xmlns:svg="http://www.w3.org/2000/svg"
   xmlns="http://www.w3.org/2000/svg"
   xmlns:sodipodi="http://sodipodi.sourceforge.net/DTD/sodipodi-0.dtd"
   xmlns:inkscape="http://www.inkscape.org/namespaces/inkscape"
   width="252"
   height="256"
   viewBox="0 0 66.675 67.733335"
   version="1.1"
   id="svg8"
   inkscape:version="0.92.4 (5da689c313, 2019-01-14)"
   sodipodi:docname="icono.svg">
  <defs
     id="defs2" />
  <sodipodi:namedview
     id="base"
     pagecolor="#ffffff"
     bordercolor="#666666"
     borderopacity="1.0"
     inkscape:pageopacity="0.0"
     inkscape:pageshadow="2"
     inkscape:zoom="1.4"
     inkscape:cx="7.5763691"
     inkscape:cy="138.69165"
     inkscape:document-units="px"
     inkscape:current-layer="layer1"
     showgrid="false"
     inkscape:snap-global="false"
     inkscape:window-width="1280"
     inkscape:window-height="984"
     inkscape:window-x="0"
     inkscape:window-y="0"
     inkscape:window-maximized="1"
     units="px"
     inkscape:pagecheckerboard="false" />
  <metadata
     id="metadata5">
    <rdf:RDF>
      <cc:Work
         rdf:about="">
        <dc:format>image/svg+xml</dc:format>
        <dc:type
           rdf:resource="http://purl.org/dc/dcmitype/StillImage" />
        <dc:title></dc:title>
      </cc:Work>
    </rdf:RDF>
  </metadata>
  <g
     inkscape:label="Capa 1"
     inkscape:groupmode="layer"
     id="layer1"
     transform="translate(0,-229.26665)">
    <g
       id="g891"
       transform="matrix(0.42396288,0,0,0.42396288,3.1292376,206.08599)">
      <g
         transform="matrix(0.19808305,-0.19808305,0.19808305,0.19808305,-24.53745,130.67925)"
         id="g830">
        <g
           id="icon_24_">
          <path
             style="fill:#eeefee"
             inkscape:connector-curvature="0"
             d="M 301.557,30.518 H 451.342 V 183.745 H 301.557 Z"
             transform="matrix(0.707,-0.707,0.707,0.707,34.506,297.568)"
             id="path815" />
          <path
             style="fill:#dbd8dd"
             inkscape:connector-curvature="0"
             d="m 345.301,153.499 -4.868,-4.867 49.31,-49.31 -10.349,-10.349 42.409,-42.408 4.867,4.873 -37.54,37.535 10.349,10.349 z"
             id="path817" />
          <path
             style="fill:#575b6d"
             inkscape:connector-curvature="0"
             d="m 406.834,110.917 h 36.704 v 18.523 h -36.704 z"
             transform="matrix(0.707,-0.707,0.707,0.707,39.555,335.851)"
             id="path819" />
          <path
             style="fill:#575b6d"
             inkscape:connector-curvature="0"
             d="m 345.048,49.127 h 36.704 V 67.65 h -36.704 z"
             transform="matrix(0.707,-0.707,0.707,0.707,65.15,274.065)"
             id="path821" />
          <path
             style="fill:#0094cc;fill-opacity:1"
             inkscape:connector-curvature="0"
             d="m 330.172,50.579 h 23.791 v 181.88 h -23.791 z"
             transform="matrix(0.707,-0.707,0.707,0.707,0.12,283.329)"
             id="path823" />
          <path
             style="fill:#00adef;fill-opacity:1"
             inkscape:connector-curvature="0"
             d="M 411.471,219.664 263.92,72.112 c -5.388,-5.356 -14.09,-5.356 -19.478,0 L 34.951,281.603 c -46.32,45.927 -46.639,120.709 -0.712,167.029 45.927,46.32 120.709,46.639 167.029,0.712 0.238,-0.236 0.475,-0.473 0.712,-0.712 L 411.471,239.141 c 5.356,-5.387 5.356,-14.089 0,-19.477 z M 47.852,435.732 C 24.137,412.017 17.124,380.659 32.076,365.707 c 14.951,-14.951 46.31,-7.938 70.025,15.776 23.715,23.714 30.775,55.026 15.776,70.025 -14.999,14.999 -46.304,7.938 -70.019,-15.776 z"
             id="path825" />
        </g>
      </g>
      <g
         transform="matrix(0.18732573,0,0,0.18732573,45.157779,117.57604)"
         id="g850">
        <path
           style="fill:#ffffff"
           inkscape:connector-curvature="0"
           d="m 0,36.357382 104.61908,-14.248037 0.0457,100.913575 -104.56925068,0.59549 z m 104.56925,98.292748 0.0812,101.00152 L 0.0812046,221.27492 0.07534145,133.97264 Z M 117.25153,20.245451 255.96775,0 v 121.73948 l -138.71622,1.10124 z M 256,135.59996 255.96746,256.79123 117.25124,237.21301 117.05687,135.37305 Z"
           id="path848" />
      </g>
    </g>
  </g>
</svg>
