<?xml version="1.0" encoding="UTF-8" standalone="no"?>
<svg
   xmlns:dc="http://purl.org/dc/elements/1.1/"
   xmlns:cc="http://creativecommons.org/ns#"
   xmlns:rdf="http://www.w3.org/1999/02/22-rdf-syntax-ns#"
   xmlns:svg="http://www.w3.org/2000/svg"
   xmlns="http://www.w3.org/2000/svg"
   id="svg8"
   version="1.1"
   viewBox="0 0 66.675 67.733335"
   height="256"
   width="252">
  <defs
     id="defs2" />
  <metadata
     id="metadata5">
    <rdf:RDF>
      <cc:Work
         rdf:about="">
        <dc:format>image/svg+xml</dc:format>
        <dc:type
           rdf:resource="http://purl.org/dc/dcmitype/StillImage" />
        <dc:title></dc:title>
      </cc:Work>
    </rdf:RDF>
  </metadata>
  <g
     transform="translate(0,-229.26665)"
     id="layer1">
    <path
       style="fill:#eeefee;stroke-width:0.11874752"
       d="M 24.237735,247.7719 V 229.98531 H 42.433061 V 247.7719 Z"
       id="path815" />
    <path
       style="fill:#dbd8dd;stroke-width:0.11876546"
       d="m 34.615424,245.38163 -0.817544,9e-5 v -8.28209 h -1.738215 l 8.4e-5,-7.12292 0.817964,5e-4 -4.2e-4,6.30479 h 1.738215 z"
       id="path817" />
    <path
       style="fill:#575b6d;stroke-width:0.11874752"
       d="M 37.423932,238.06151 V 233.703 h 2.19956 v 4.35851 z"
       id="path819" />
    <path
       style="fill:#575b6d;stroke-width:0.11874752"
       d="m 27.047207,238.0602 v -4.35851 h 2.199561 v 4.35851 z"
       id="path821" />
    <path
       style="fill:#0094cc;fill-opacity:1;stroke-width:0.11874752"
       d="m 22.536408,246.06588 v -2.82512 h 21.597799 v 2.82512 z"
       id="path823" />
    <path
       style="fill:#00adef;fill-opacity:1;stroke-width:0.11876546"
       d="m 45.728899,245.38121 -24.782709,-8e-5 c -0.90228,0.003 -1.633072,0.73348 -1.63576,1.63576 v 35.18605 c -0.033,7.74689 6.220388,14.05386 13.967279,14.08687 7.74689,0.033 14.053861,-6.22039 14.086865,-13.96728 1.68e-4,-0.0398 1.68e-4,-0.0796 0,-0.11959 v -35.18605 c -0.0026,-0.90219 -0.733396,-1.63299 -1.635675,-1.63568 z m -12.391313,48.68204 c -3.983165,0 -7.205556,-2.04449 -7.205556,-4.55583 0,-2.51116 3.222475,-4.55573 7.205556,-4.55582 3.983081,-8e-5 7.205556,2.0366 7.205556,4.55582 0,2.51923 -3.221971,4.55524 -7.205052,4.55532 z"
       id="path825" />
    <path
       id="path848"
       d="m 22.27446,258.82134 8.308759,-1.13156 0.0036,8.01447 -8.304802,0.0473 z m 8.304802,7.80633 0.0064,8.02146 -8.304802,-1.14179 -4.65e-4,-6.93348 z m 1.007216,-9.08592 11.016726,-1.60788 v 9.66845 l -11.016726,0.0875 z m 11.019287,9.16135 -0.0026,9.62491 -11.016726,-1.55488 -0.01544,-8.08805 z"
       style="fill:#ffffff;stroke-width:0.07941916" />
  </g>
</svg>
